<svg width="34" height="31" viewBox="0 0 34 31" fill="none" xmlns="http://www.w3.org/2000/svg">
<path d="M30.1792 16.6698C30.1792 9.32541 24.1841 3.35325 16.7662 3.35325C9.34829 3.35325 3.35325 9.32541 3.35325 16.6698C3.35325 18.6648 3.59902 19.9491 3.9039 20.8882C4.1069 21.5132 4.59592 20.8979 4.83652 20.6723C6.483 19.1274 9.05728 19.1641 10.6589 20.7556C13.041 23.1223 15.2382 26.4051 12.2026 29.4231C10.5729 31.0433 8.11864 31.7172 6.25102 29.9721C3.84007 27.7193 1.74513 25.0977 0.71456 21.9237C0.283349 20.5956 0 18.9541 0 16.6698C0 7.45324 7.51663 0 16.7662 0C26.0158 0 33.5325 7.45324 33.5325 16.6698C33.5325 18.9541 33.2491 20.5956 32.8179 21.9237C31.7873 25.0977 29.6923 27.7193 27.2815 29.9721C25.4137 31.7172 22.9595 31.0433 21.3298 29.4231C18.2943 26.4051 20.4913 23.1223 22.8735 20.7556C24.4752 19.1641 27.0495 19.1274 28.6959 20.6723C29.1607 21.1083 29.3888 21.6266 29.6286 20.8882C29.9334 19.9491 30.1792 18.6648 30.1792 16.6698Z" fill="#EFF5E1"/>
</svg>
