<svg width="42" height="15" viewBox="0 0 42 15" fill="none" xmlns="http://www.w3.org/2000/svg">
<path d="M1 6.36401L-8.74228e-08 6.36401L8.74228e-08 8.36401L1 8.36401L1 6.36401ZM41.7071 8.07112C42.0976 7.68059 42.0976 7.04743 41.7071 6.6569L35.3431 0.292943C34.9526 -0.0975815 34.3195 -0.0975814 33.9289 0.292943C33.5384 0.683467 33.5384 1.31663 33.9289 1.70716L39.5858 7.36401L33.9289 13.0209C33.5384 13.4114 33.5384 14.0446 33.9289 14.4351C34.3195 14.8256 34.9526 14.8256 35.3431 14.4351L41.7071 8.07112ZM1 7.36401L1 8.36401L41 8.36401L41 7.36401L41 6.36401L1 6.36401L1 7.36401Z" fill="#FEFFF4"/>
</svg>
